<svg width="16" height="9" viewBox="0 0 16 9" fill="none" xmlns="http://www.w3.org/2000/svg">
<path d="M15 3.00001H13.2069L10.5 0.29313C10.4075 0.199867 10.2973 0.125926 10.176 0.0756047C10.0546 0.0252833 9.9245 -0.00041465 9.79313 5.0593e-06H2.7675C2.60325 0.000309174 2.4416 0.0410686 2.29684 0.118681C2.15207 0.196294 2.02866 0.30837 1.9375 0.445005L0.08375 3.22251C0.0292824 3.30482 0.000163036 3.4013 0 3.50001L0 6.50001C0 6.76522 0.105357 7.01958 0.292893 7.20711C0.48043 7.39465 0.734784 7.50001 1 7.50001H2.0625C2.17265 7.93021 2.42285 8.31152 2.77366 8.58383C3.12446 8.85613 3.55591 9.00393 4 9.00393C4.44409 9.00393 4.87554 8.85613 5.22635 8.58383C5.57715 8.31152 5.82735 7.93021 5.9375 7.50001H10.0625C10.1727 7.93021 10.4229 8.31152 10.7737 8.58383C11.1245 8.85613 11.5559 9.00393 12 9.00393C12.4441 9.00393 12.8755 8.85613 13.2263 8.58383C13.5771 8.31152 13.8273 7.93021 13.9375 7.50001H15C15.2652 7.50001 15.5196 7.39465 15.7071 7.20711C15.8946 7.01958 16 6.76522 16 6.50001V4.00001C16 3.73479 15.8946 3.48044 15.7071 3.2929C15.5196 3.10536 15.2652 3.00001 15 3.00001ZM2.7675 1.00001H9.79313L11.7931 3.00001H1.4375L2.7675 1.00001ZM4 8.00001C3.80222 8.00001 3.60888 7.94136 3.44443 7.83148C3.27998 7.72159 3.15181 7.56542 3.07612 7.38269C3.00043 7.19996 2.98063 6.9989 3.01921 6.80492C3.0578 6.61093 3.15304 6.43275 3.29289 6.2929C3.43275 6.15305 3.61093 6.05781 3.80491 6.01922C3.99889 5.98064 4.19996 6.00044 4.38268 6.07613C4.56541 6.15181 4.72159 6.27999 4.83147 6.44444C4.94135 6.60888 5 6.80222 5 7.00001C5 7.26522 4.89464 7.51958 4.70711 7.70711C4.51957 7.89465 4.26522 8.00001 4 8.00001ZM12 8.00001C11.8022 8.00001 11.6089 7.94136 11.4444 7.83148C11.28 7.72159 11.1518 7.56542 11.0761 7.38269C11.0004 7.19996 10.9806 6.9989 11.0192 6.80492C11.0578 6.61093 11.153 6.43275 11.2929 6.2929C11.4327 6.15305 11.6109 6.05781 11.8049 6.01922C11.9989 5.98064 12.2 6.00044 12.3827 6.07613C12.5654 6.15181 12.7216 6.27999 12.8315 6.44444C12.9414 6.60888 13 6.80222 13 7.00001C13 7.26522 12.8946 7.51958 12.7071 7.70711C12.5196 7.89465 12.2652 8.00001 12 8.00001ZM15 6.50001H13.9375C13.8273 6.0698 13.5771 5.68849 13.2263 5.41619C12.8755 5.14389 12.4441 4.99608 12 4.99608C11.5559 4.99608 11.1245 5.14389 10.7737 5.41619C10.4229 5.68849 10.1727 6.0698 10.0625 6.50001H5.9375C5.82735 6.0698 5.57715 5.68849 5.22635 5.41619C4.87554 5.14389 4.44409 4.99608 4 4.99608C3.55591 4.99608 3.12446 5.14389 2.77366 5.41619C2.42285 5.68849 2.17265 6.0698 2.0625 6.50001H1V4.00001H15V6.50001Z" fill="#414651"/>
</svg>
