<svg width="16" height="11" viewBox="0 0 16 11" fill="none" xmlns="http://www.w3.org/2000/svg">
<path d="M13.5 6C13.3688 5.99993 13.2377 6.01038 13.1081 6.03125L10.9681 0.324375C10.9324 0.229092 10.8684 0.146985 10.7848 0.0890224C10.7011 0.0310603 10.6018 3.22692e-06 10.5 0H8.5C8.36739 0 8.24022 0.0526785 8.14645 0.146447C8.05268 0.240215 8 0.367392 8 0.5C8 0.632608 8.05268 0.759785 8.14645 0.853553C8.24022 0.947321 8.36739 1 8.5 1H10.1538L12.1725 6.38313C11.8856 6.56276 11.638 6.79862 11.4446 7.0765C11.2513 7.35438 11.1162 7.66852 11.0475 8H8.53375L6.97125 3.82438C6.93532 3.72859 6.87087 3.64613 6.7866 3.58813C6.70233 3.53012 6.6023 3.49936 6.5 3.5H1.5C1.36739 3.5 1.24021 3.55268 1.14645 3.64645C1.05268 3.74021 1 3.86739 1 4C1 4.13261 1.05268 4.25979 1.14645 4.35355C1.24021 4.44732 1.36739 4.5 1.5 4.5H2V5.33687C1.40201 5.62152 0.896827 6.06964 0.542892 6.62941C0.188958 7.18918 0.000735172 7.83772 0 8.5C0 8.63261 0.0526784 8.75979 0.146447 8.85355C0.240215 8.94732 0.367392 9 0.5 9H1.05C1.16476 9.56514 1.47136 10.0732 1.91787 10.4382C2.36438 10.8031 2.92332 11.0025 3.5 11.0025C4.07668 11.0025 4.63562 10.8031 5.08213 10.4382C5.52864 10.0732 5.83524 9.56514 5.95 9H11.05C11.1446 9.46346 11.3687 9.89057 11.6964 10.2317C12.0241 10.5729 12.4418 10.8141 12.901 10.9273C13.3603 11.0405 13.8423 11.0212 14.2909 10.8714C14.7396 10.7217 15.1366 10.4477 15.4358 10.0813C15.735 9.71497 15.9241 9.27124 15.9812 8.80168C16.0383 8.33212 15.961 7.85601 15.7583 7.42863C15.5556 7.00125 15.2358 6.64015 14.836 6.38727C14.4363 6.13439 13.973 6.0001 13.5 6ZM2.66688 6.14188C2.7643 6.10738 2.84863 6.04355 2.90829 5.95916C2.96794 5.87477 2.99998 5.77397 3 5.67063V4.5H6.15375L7.46625 8H1.05063C1.13714 7.57729 1.3314 7.1841 1.61457 6.85855C1.89775 6.53299 2.26023 6.28613 2.66688 6.14188ZM3.5 10C3.18989 9.9999 2.88743 9.90369 2.63425 9.72461C2.38107 9.54553 2.18962 9.29238 2.08625 9H4.91375C4.81038 9.29238 4.61893 9.54553 4.36575 9.72461C4.11257 9.90369 3.81011 9.9999 3.5 10ZM13.5 10C13.1925 9.99966 12.8926 9.90483 12.6408 9.72836C12.389 9.55189 12.1975 9.3023 12.0923 9.01339C11.987 8.72448 11.9731 8.41021 12.0524 8.11313C12.1317 7.81606 12.3004 7.55053 12.5356 7.3525L13.0319 8.67562C13.0549 8.73718 13.0899 8.79359 13.1348 8.84164C13.1796 8.88968 13.2335 8.92842 13.2934 8.95564C13.3532 8.98286 13.4178 8.99803 13.4835 9.00028C13.5492 9.00253 13.6147 8.99181 13.6763 8.96875C13.7378 8.94569 13.7942 8.91072 13.8423 8.86586C13.8903 8.821 13.929 8.76711 13.9563 8.70727C13.9835 8.64744 13.9987 8.58282 14.0009 8.51713C14.0032 8.45143 13.9924 8.38593 13.9694 8.32438L13.4719 7H13.5C13.8978 7 14.2794 7.15804 14.5607 7.43934C14.842 7.72064 15 8.10218 15 8.5C15 8.89782 14.842 9.27936 14.5607 9.56066C14.2794 9.84196 13.8978 10 13.5 10Z" fill="#414651"/>
</svg>
