<svg width="15" height="11" viewBox="0 0 15 11" fill="none" xmlns="http://www.w3.org/2000/svg">
<path d="M14.9638 4.3125L14.0888 2.125C14.0145 1.93992 13.8864 1.78139 13.7211 1.66996C13.5557 1.55852 13.3607 1.49931 13.1613 1.5H11V1C11 0.867392 10.9473 0.740215 10.8536 0.646447C10.7598 0.552679 10.6326 0.5 10.5 0.5H1C0.734784 0.5 0.48043 0.605357 0.292893 0.792893C0.105357 0.98043 0 1.23478 0 1.5V8.5C0 8.76522 0.105357 9.01957 0.292893 9.20711C0.48043 9.39464 0.734784 9.5 1 9.5H2.0625C2.17265 9.93021 2.42285 10.3115 2.77366 10.5838C3.12446 10.8561 3.55592 11.0039 4 11.0039C4.44409 11.0039 4.87554 10.8561 5.22635 10.5838C5.57715 10.3115 5.82735 9.93021 5.9375 9.5H9.0625C9.17265 9.93021 9.42285 10.3115 9.77366 10.5838C10.1245 10.8561 10.5559 11.0039 11 11.0039C11.4441 11.0039 11.8755 10.8561 12.2263 10.5838C12.5772 10.3115 12.8274 9.93021 12.9375 9.5H14C14.2652 9.5 14.5196 9.39464 14.7071 9.20711C14.8946 9.01957 15 8.76522 15 8.5V4.5C15.0002 4.43574 14.9879 4.37206 14.9638 4.3125ZM11 2.5H13.1613L13.7613 4H11V2.5ZM1 1.5H10V5.5H1V1.5ZM4 10C3.80222 10 3.60888 9.94135 3.44443 9.83147C3.27998 9.72159 3.15181 9.56541 3.07612 9.38268C3.00043 9.19996 2.98063 8.99889 3.01922 8.80491C3.0578 8.61093 3.15304 8.43275 3.29289 8.29289C3.43275 8.15304 3.61093 8.0578 3.80491 8.01921C3.99889 7.98063 4.19996 8.00043 4.38268 8.07612C4.56541 8.15181 4.72159 8.27998 4.83147 8.44443C4.94135 8.60888 5 8.80222 5 9C5 9.26522 4.89464 9.51957 4.70711 9.70711C4.51957 9.89464 4.26522 10 4 10ZM9.0625 8.5H5.9375C5.82735 8.06979 5.57715 7.68848 5.22635 7.41618C4.87554 7.14388 4.44409 6.99608 4 6.99608C3.55592 6.99608 3.12446 7.14388 2.77366 7.41618C2.42285 7.68848 2.17265 8.06979 2.0625 8.5H1V6.5H10V7.26937C9.77009 7.40227 9.56883 7.57948 9.4079 7.79072C9.24698 8.00197 9.12957 8.24305 9.0625 8.5ZM11 10C10.8022 10 10.6089 9.94135 10.4444 9.83147C10.28 9.72159 10.1518 9.56541 10.0761 9.38268C10.0004 9.19996 9.98063 8.99889 10.0192 8.80491C10.0578 8.61093 10.153 8.43275 10.2929 8.29289C10.4327 8.15304 10.6109 8.0578 10.8049 8.01921C10.9989 7.98063 11.2 8.00043 11.3827 8.07612C11.5654 8.15181 11.7216 8.27998 11.8315 8.44443C11.9414 8.60888 12 8.80222 12 9C12 9.26522 11.8946 9.51957 11.7071 9.70711C11.5196 9.89464 11.2652 10 11 10ZM14 8.5H12.9375C12.826 8.07084 12.5754 7.69077 12.2247 7.41934C11.8741 7.1479 11.4434 7.00042 11 7V5H14V8.5Z" fill="#414651"/>
</svg>
