<svg width="15" height="11" viewBox="0 0 15 11" fill="none" xmlns="http://www.w3.org/2000/svg">
<path d="M14.8794 3.67438L12.0331 0.358125C11.9393 0.24599 11.8219 0.155806 11.6894 0.09393C11.5569 0.0320536 11.4125 -9.607e-06 11.2662 2.15922e-09H1C0.734784 2.15922e-09 0.48043 0.105357 0.292893 0.292893C0.105357 0.48043 0 0.734784 0 1V8C0 8.26522 0.105357 8.51957 0.292893 8.70711C0.48043 8.89464 0.734784 9 1 9H2.0625C2.17265 9.43021 2.42285 9.81152 2.77366 10.0838C3.12446 10.3561 3.55591 10.5039 4 10.5039C4.44409 10.5039 4.87554 10.3561 5.22635 10.0838C5.57715 9.81152 5.82735 9.43021 5.9375 9H9.0625C9.17265 9.43021 9.42285 9.81152 9.77365 10.0838C10.1245 10.3561 10.5559 10.5039 11 10.5039C11.4441 10.5039 11.8755 10.3561 12.2263 10.0838C12.5771 9.81152 12.8273 9.43021 12.9375 9H14C14.2652 9 14.5196 8.89464 14.7071 8.70711C14.8946 8.51957 15 8.26522 15 8V4C15 3.88053 14.9572 3.76502 14.8794 3.67438ZM13.4119 3.5H10V1H11.2662L13.4119 3.5ZM5.5 3.5V1H9V3.5H5.5ZM4.5 1V3.5H1V1H4.5ZM4 9.5C3.80222 9.5 3.60888 9.44135 3.44443 9.33147C3.27998 9.22159 3.15181 9.06541 3.07612 8.88268C3.00043 8.69996 2.98063 8.49889 3.01921 8.30491C3.0578 8.11093 3.15304 7.93275 3.29289 7.79289C3.43275 7.65304 3.61093 7.5578 3.80491 7.51921C3.99889 7.48063 4.19996 7.50043 4.38268 7.57612C4.56541 7.65181 4.72159 7.77998 4.83147 7.94443C4.94135 8.10888 5 8.30222 5 8.5C5 8.76522 4.89464 9.01957 4.70711 9.20711C4.51957 9.39464 4.26522 9.5 4 9.5ZM11 9.5C10.8022 9.5 10.6089 9.44135 10.4444 9.33147C10.28 9.22159 10.1518 9.06541 10.0761 8.88268C10.0004 8.69996 9.98063 8.49889 10.0192 8.30491C10.0578 8.11093 10.153 7.93275 10.2929 7.79289C10.4327 7.65304 10.6109 7.5578 10.8049 7.51921C10.9989 7.48063 11.2 7.50043 11.3827 7.57612C11.5654 7.65181 11.7216 7.77998 11.8315 7.94443C11.9414 8.10888 12 8.30222 12 8.5C12 8.76522 11.8946 9.01957 11.7071 9.20711C11.5196 9.39464 11.2652 9.5 11 9.5ZM12.9375 8C12.8273 7.56979 12.5771 7.18848 12.2263 6.91618C11.8755 6.64388 11.4441 6.49608 11 6.49608C10.5559 6.49608 10.1245 6.64388 9.77365 6.91618C9.42285 7.18848 9.17265 7.56979 9.0625 8H5.9375C5.82735 7.56979 5.57715 7.18848 5.22635 6.91618C4.87554 6.64388 4.44409 6.49608 4 6.49608C3.55591 6.49608 3.12446 6.64388 2.77366 6.91618C2.42285 7.18848 2.17265 7.56979 2.0625 8H1V4.5H14V8H12.9375Z" fill="#414651"/>
</svg>
